<?xml version="1.0" standalone="no"?><svg xmlns="http://www.w3.org/2000/svg" viewBox="0 0 1440 320"><path fill="#facc15" fill-opacity="1" d="M0,192L30,186.7C60,181,120,171,180,176C240,181,300,203,360,197.3C420,192,480,160,540,154.7C600,149,660,171,720,202.7C780,235,840,277,900,261.3C960,245,1020,171,1080,144C1140,117,1200,139,1260,128C1320,117,1380,75,1410,53.3L1440,32L1440,320L1410,320C1380,320,1320,320,1260,320C1200,320,1140,320,1080,320C1020,320,960,320,900,320C840,320,780,320,720,320C660,320,600,320,540,320C480,320,420,320,360,320C300,320,240,320,180,320C120,320,60,320,30,320L0,320Z"></path></svg>